<svg width="121" height="39" viewBox="0 0 121 39" fill="none" xmlns="http://www.w3.org/2000/svg">
<path opacity="0.6" d="M10.5128 4.22467L21.0256 19.2247L10.5128 34.2247L0 19.2247L10.5128 4.22467Z" fill="#BBC3FD"/>
<path opacity="0.6" d="M17.9999 4.22467L28.5127 19.2247L17.9999 34.2247L7.48706 19.2247L17.9999 4.22467Z" fill="#6173FB"/>
<path opacity="0.6" d="M25.4873 4.22467L36.0001 19.2247L25.4873 34.2247L14.9745 19.2247L25.4873 4.22467Z" fill="#BBC3FD"/>
<path d="M49.7221 29.0989C49.6752 28.6276 49.4671 28.2527 49.0978 27.9743C48.7284 27.696 48.264 27.5568 47.7045 27.5568C47.3103 27.5568 46.963 27.6243 46.6626 27.7594C46.3649 27.8944 46.1306 28.0818 45.9597 28.3216C45.7916 28.5587 45.7075 28.8288 45.7075 29.132C45.7075 29.3552 45.7558 29.5509 45.8522 29.7191C45.9487 29.8872 46.0782 30.0319 46.2409 30.1532C46.4062 30.2717 46.5882 30.3737 46.7866 30.4591C46.9878 30.5446 47.1904 30.6162 47.3944 30.6741L48.2874 30.9305C48.5575 31.0049 48.8276 31.1 49.0978 31.2157C49.3679 31.3315 49.6146 31.4776 49.8378 31.654C50.0638 31.8276 50.2444 32.0413 50.3794 32.2948C50.5172 32.5457 50.5862 32.8475 50.5862 33.2003C50.5862 33.6523 50.469 34.0589 50.2347 34.4199C50.0004 34.781 49.6642 35.0677 49.2259 35.2799C48.7877 35.4894 48.2626 35.5941 47.6507 35.5941C47.0746 35.5941 46.5744 35.499 46.1499 35.3088C45.7254 35.1159 45.3919 34.8499 45.1494 34.5109C44.9068 34.1719 44.7704 33.7791 44.7401 33.3326H45.5339C45.5614 33.6661 45.6717 33.9486 45.8646 34.1801C46.0576 34.4117 46.3084 34.5881 46.6171 34.7093C46.9258 34.8279 47.2703 34.8871 47.6507 34.8871C48.0724 34.8871 48.4473 34.8168 48.7753 34.6763C49.106 34.5329 49.3651 34.3345 49.5525 34.0809C49.7427 33.8246 49.8378 33.5269 49.8378 33.1879C49.8378 32.9012 49.7634 32.6614 49.6146 32.4685C49.4657 32.2728 49.2576 32.1088 48.9903 31.9765C48.7257 31.8442 48.4183 31.727 48.0683 31.6251L47.0553 31.3274C46.3911 31.1289 45.8757 30.8547 45.5091 30.5046C45.1425 30.1546 44.9592 29.7081 44.9592 29.1651C44.9592 28.7103 45.0805 28.3106 45.323 27.9661C45.5683 27.6188 45.8991 27.3487 46.3153 27.1557C46.7342 26.96 47.2042 26.8622 47.7251 26.8622C48.2516 26.8622 48.7174 26.9587 49.1226 27.1516C49.5277 27.3445 49.8488 27.6105 50.0859 27.9495C50.3257 28.2858 50.4539 28.6689 50.4704 29.0989H49.7221ZM54.0673 35.5941C53.6842 35.5941 53.3342 35.5197 53.0172 35.3708C52.7002 35.2193 52.448 35.0015 52.2606 34.7176C52.0732 34.431 51.9795 34.0837 51.9795 33.6757C51.9795 33.3615 52.0387 33.0969 52.1572 32.8819C52.2758 32.6669 52.4439 32.4905 52.6616 32.3527C52.8794 32.2149 53.1371 32.106 53.4348 32.0261C53.7325 31.9462 54.0605 31.8841 54.4188 31.84C54.7743 31.7959 55.0748 31.7574 55.3201 31.7243C55.5681 31.6912 55.757 31.6388 55.8865 31.5672C56.016 31.4955 56.0808 31.3797 56.0808 31.2199V31.071C56.0808 30.6383 55.9513 30.2979 55.6922 30.0498C55.4358 29.799 55.0665 29.6736 54.5842 29.6736C54.1266 29.6736 53.7531 29.7742 53.4637 29.9754C53.1771 30.1766 52.9759 30.4137 52.8601 30.6865L52.1614 30.4343C52.3047 30.087 52.5032 29.81 52.7567 29.6033C53.0103 29.3938 53.2942 29.2436 53.6084 29.1527C53.9226 29.0589 54.241 29.0121 54.5635 29.0121C54.806 29.0121 55.0582 29.0438 55.3201 29.1072C55.5847 29.1706 55.83 29.2808 56.056 29.4379C56.282 29.5923 56.4653 29.8087 56.6059 30.087C56.7465 30.3627 56.8167 30.7127 56.8167 31.1372V35.4494H56.0808V34.4447H56.0353C55.9471 34.6322 55.8162 34.8141 55.6426 34.9905C55.4689 35.1669 55.2512 35.3116 54.9893 35.4246C54.7275 35.5376 54.4202 35.5941 54.0673 35.5941ZM54.1666 34.9202C54.558 34.9202 54.897 34.8334 55.1836 34.6597C55.4703 34.4861 55.6908 34.2559 55.8452 33.9693C56.0023 33.6799 56.0808 33.3615 56.0808 33.0142V32.0964C56.0257 32.1487 55.9334 32.1956 55.8038 32.2369C55.677 32.2783 55.5296 32.3155 55.3614 32.3486C55.196 32.3789 55.0307 32.4051 54.8653 32.4271C54.6999 32.4492 54.5511 32.4685 54.4188 32.485C54.0605 32.5291 53.7545 32.598 53.5009 32.6917C53.2474 32.7854 53.053 32.915 52.918 33.0804C52.7829 33.243 52.7154 33.4525 52.7154 33.7088C52.7154 34.0947 52.8532 34.3937 53.1288 34.606C53.4045 34.8155 53.7504 34.9202 54.1666 34.9202ZM60.5481 35.5941C60.1649 35.5941 59.8149 35.5197 59.4979 35.3708C59.181 35.2193 58.9288 35.0015 58.7413 34.7176C58.5539 34.431 58.4602 34.0837 58.4602 33.6757C58.4602 33.3615 58.5194 33.0969 58.638 32.8819C58.7565 32.6669 58.9246 32.4905 59.1424 32.3527C59.3601 32.2149 59.6178 32.106 59.9155 32.0261C60.2132 31.9462 60.5412 31.8841 60.8995 31.84C61.2551 31.7959 61.5555 31.7574 61.8008 31.7243C62.0489 31.6912 62.2377 31.6388 62.3672 31.5672C62.4968 31.4955 62.5615 31.3797 62.5615 31.2199V31.071C62.5615 30.6383 62.432 30.2979 62.1729 30.0498C61.9166 29.799 61.5472 29.6736 61.0649 29.6736C60.6073 29.6736 60.2339 29.7742 59.9444 29.9754C59.6578 30.1766 59.4566 30.4137 59.3408 30.6865L58.6421 30.4343C58.7854 30.087 58.9839 29.81 59.2375 29.6033C59.491 29.3938 59.7749 29.2436 60.0891 29.1527C60.4034 29.0589 60.7217 29.0121 61.0442 29.0121C61.2868 29.0121 61.539 29.0438 61.8008 29.1072C62.0654 29.1706 62.3107 29.2808 62.5367 29.4379C62.7628 29.5923 62.946 29.8087 63.0866 30.087C63.2272 30.3627 63.2975 30.7127 63.2975 31.1372V35.4494H62.5615V34.4447H62.5161C62.4279 34.6322 62.2969 34.8141 62.1233 34.9905C61.9496 35.1669 61.7319 35.3116 61.4701 35.4246C61.2082 35.5376 60.9009 35.5941 60.5481 35.5941ZM60.6473 34.9202C61.0387 34.9202 61.3777 34.8334 61.6644 34.6597C61.951 34.4861 62.1715 34.2559 62.3259 33.9693C62.483 33.6799 62.5615 33.3615 62.5615 33.0142V32.0964C62.5064 32.1487 62.4141 32.1956 62.2845 32.2369C62.1577 32.2783 62.0103 32.3155 61.8421 32.3486C61.6768 32.3789 61.5114 32.4051 61.346 32.4271C61.1806 32.4492 61.0318 32.4685 60.8995 32.485C60.5412 32.5291 60.2352 32.598 59.9817 32.6917C59.7281 32.7854 59.5338 32.915 59.3987 33.0804C59.2636 33.243 59.1961 33.4525 59.1961 33.7088C59.1961 34.0947 59.3339 34.3937 59.6096 34.606C59.8852 34.8155 60.2311 34.9202 60.6473 34.9202ZM70.0056 29.0989C69.9587 28.6276 69.7506 28.2527 69.3813 27.9743C69.0119 27.696 68.5475 27.5568 67.988 27.5568C67.5938 27.5568 67.2465 27.6243 66.9461 27.7594C66.6484 27.8944 66.4141 28.0818 66.2433 28.3216C66.0751 28.5587 65.9911 28.8288 65.9911 29.132C65.9911 29.3552 66.0393 29.5509 66.1358 29.7191C66.2322 29.8872 66.3618 30.0319 66.5244 30.1532C66.6898 30.2717 66.8717 30.3737 67.0701 30.4591C67.2714 30.5446 67.4739 30.6162 67.6779 30.6741L68.5709 30.9305C68.8411 31.0049 69.1112 31.1 69.3813 31.2157C69.6514 31.3315 69.8981 31.4776 70.1214 31.654C70.3474 31.8276 70.5279 32.0413 70.663 32.2948C70.8008 32.5457 70.8697 32.8475 70.8697 33.2003C70.8697 33.6523 70.7525 34.0589 70.5183 34.4199C70.284 34.781 69.9477 35.0677 69.5095 35.2799C69.0712 35.4894 68.5461 35.5941 67.9342 35.5941C67.3582 35.5941 66.8579 35.499 66.4334 35.3088C66.009 35.1159 65.6755 34.8499 65.4329 34.5109C65.1904 34.1719 65.0539 33.7791 65.0236 33.3326H65.8174C65.845 33.6661 65.9552 33.9486 66.1482 34.1801C66.3411 34.4117 66.5919 34.5881 66.9006 34.7093C67.2093 34.8279 67.5539 34.8871 67.9342 34.8871C68.356 34.8871 68.7308 34.8168 69.0588 34.6763C69.3896 34.5329 69.6487 34.3345 69.8361 34.0809C70.0263 33.8246 70.1214 33.5269 70.1214 33.1879C70.1214 32.9012 70.0469 32.6614 69.8981 32.4685C69.7493 32.2728 69.5412 32.1088 69.2738 31.9765C69.0092 31.8442 68.7019 31.727 68.3518 31.6251L67.3389 31.3274C66.6746 31.1289 66.1592 30.8547 65.7926 30.5046C65.426 30.1546 65.2427 29.7081 65.2427 29.1651C65.2427 28.7103 65.364 28.3106 65.6066 27.9661C65.8519 27.6188 66.1826 27.3487 66.5988 27.1557C67.0178 26.96 67.4877 26.8622 68.0087 26.8622C68.5351 26.8622 69.0009 26.9587 69.4061 27.1516C69.8113 27.3445 70.1324 27.6105 70.3694 27.9495C70.6092 28.2858 70.7374 28.6689 70.7539 29.0989H70.0056ZM76.0047 35.4494V26.9821H78.7375C79.3384 26.9821 79.84 27.0978 80.2424 27.3294C80.6476 27.5581 80.9522 27.8696 81.1562 28.2638C81.3629 28.6579 81.4662 29.1017 81.4662 29.595C81.4662 30.0884 81.3643 30.5336 81.1603 30.9305C80.9563 31.3246 80.6531 31.6375 80.2507 31.869C79.8483 32.0978 79.348 32.2121 78.7499 32.2121H76.6V31.5176H78.7292C79.173 31.5176 79.541 31.4349 79.8331 31.2695C80.1253 31.1014 80.3431 30.8726 80.4864 30.5832C80.6325 30.2938 80.7055 29.9644 80.7055 29.595C80.7055 29.2257 80.6325 28.8963 80.4864 28.6069C80.3431 28.3175 80.1239 28.0901 79.829 27.9247C79.5368 27.7594 79.1661 27.6767 78.7168 27.6767H76.7778V35.4494H76.0047ZM83.8642 26.9821V35.4494H83.1283V26.9821H83.8642ZM87.5852 35.5941C87.2021 35.5941 86.852 35.5197 86.5351 35.3708C86.2181 35.2193 85.9659 35.0015 85.7785 34.7176C85.591 34.431 85.4973 34.0837 85.4973 33.6757C85.4973 33.3615 85.5566 33.0969 85.6751 32.8819C85.7936 32.6669 85.9617 32.4905 86.1795 32.3527C86.3972 32.2149 86.655 32.106 86.9526 32.0261C87.2503 31.9462 87.5783 31.8841 87.9366 31.84C88.2922 31.7959 88.5926 31.7574 88.8379 31.7243C89.086 31.6912 89.2748 31.6388 89.4044 31.5672C89.5339 31.4955 89.5987 31.3797 89.5987 31.2199V31.071C89.5987 30.6383 89.4691 30.2979 89.21 30.0498C88.9537 29.799 88.5844 29.6736 88.102 29.6736C87.6445 29.6736 87.271 29.7742 86.9816 29.9754C86.6949 30.1766 86.4937 30.4137 86.3779 30.6865L85.6792 30.4343C85.8226 30.087 86.021 29.81 86.2746 29.6033C86.5282 29.3938 86.8121 29.2436 87.1263 29.1527C87.4405 29.0589 87.7588 29.0121 88.0813 29.0121C88.3239 29.0121 88.5761 29.0438 88.8379 29.1072C89.1025 29.1706 89.3479 29.2808 89.5739 29.4379C89.7999 29.5923 89.9832 29.8087 90.1237 30.087C90.2643 30.3627 90.3346 30.7127 90.3346 31.1372V35.4494H89.5987V34.4447H89.5532C89.465 34.6322 89.3341 34.8141 89.1604 34.9905C88.9868 35.1669 88.769 35.3116 88.5072 35.4246C88.2453 35.5376 87.938 35.5941 87.5852 35.5941ZM87.6844 34.9202C88.0758 34.9202 88.4148 34.8334 88.7015 34.6597C88.9882 34.4861 89.2087 34.2559 89.363 33.9693C89.5201 33.6799 89.5987 33.3615 89.5987 33.0142V32.0964C89.5435 32.1487 89.4512 32.1956 89.3217 32.2369C89.1949 32.2783 89.0474 32.3155 88.8793 32.3486C88.7139 32.3789 88.5485 32.4051 88.3831 32.4271C88.2178 32.4492 88.0689 32.4685 87.9366 32.485C87.5783 32.5291 87.2724 32.598 87.0188 32.6917C86.7652 32.7854 86.5709 32.915 86.4358 33.0804C86.3008 33.243 86.2332 33.4525 86.2332 33.7088C86.2332 34.0947 86.3711 34.3937 86.6467 34.606C86.9223 34.8155 87.2682 34.9202 87.6844 34.9202ZM94.7936 29.0989V29.7397H91.763V29.0989H94.7936ZM92.7098 27.5774H93.4499V33.7915C93.4499 34.0561 93.4954 34.2642 93.5863 34.4158C93.6773 34.5646 93.7958 34.6708 93.9419 34.7341C94.088 34.7948 94.2437 34.8251 94.4091 34.8251C94.5056 34.8251 94.5882 34.8196 94.6572 34.8086C94.7261 34.7948 94.7867 34.781 94.8391 34.7672L94.9962 35.4329C94.9245 35.4604 94.8363 35.4852 94.7316 35.5073C94.6268 35.5321 94.4973 35.5445 94.3429 35.5445C94.0728 35.5445 93.8123 35.4852 93.5615 35.3667C93.3135 35.2482 93.1095 35.0718 92.9496 34.8375C92.7898 34.6032 92.7098 34.3124 92.7098 33.9651V27.5774ZM99.0779 29.0989V29.7397H95.9564V29.0989H99.0779ZM96.9321 35.4494V28.1687C96.9321 27.8269 97.0107 27.5389 97.1678 27.3046C97.3277 27.0703 97.5357 26.8925 97.7921 26.7712C98.0484 26.6499 98.3199 26.5893 98.6066 26.5893C98.7995 26.5893 98.9594 26.6058 99.0862 26.6389C99.2157 26.6692 99.3177 26.6996 99.3921 26.7299L99.1771 27.3749C99.122 27.3583 99.0545 27.339 98.9745 27.317C98.8946 27.2949 98.794 27.2839 98.6727 27.2839C98.353 27.2839 98.1063 27.3735 97.9327 27.5526C97.759 27.7318 97.6722 27.9881 97.6722 28.3216L97.6681 35.4494H96.9321ZM102.753 35.5817C102.205 35.5817 101.72 35.4425 101.298 35.1641C100.879 34.8857 100.551 34.5012 100.314 34.0106C100.077 33.5172 99.9585 32.9481 99.9585 32.3031C99.9585 31.6526 100.077 31.0807 100.314 30.5873C100.551 30.0912 100.879 29.7053 101.298 29.4297C101.72 29.1513 102.205 29.0121 102.753 29.0121C103.302 29.0121 103.786 29.1513 104.205 29.4297C104.624 29.7081 104.952 30.0939 105.189 30.5873C105.428 31.0807 105.548 31.6526 105.548 32.3031C105.548 32.9481 105.43 33.5172 105.193 34.0106C104.956 34.5012 104.626 34.8857 104.205 35.1641C103.786 35.4425 103.302 35.5817 102.753 35.5817ZM102.753 34.9078C103.194 34.9078 103.568 34.7893 103.874 34.5522C104.18 34.3152 104.411 33.9996 104.568 33.6054C104.728 33.2113 104.808 32.7772 104.808 32.3031C104.808 31.829 104.728 31.3935 104.568 30.9966C104.411 30.5997 104.18 30.2814 103.874 30.0416C103.568 29.8018 103.194 29.6819 102.753 29.6819C102.315 29.6819 101.942 29.8018 101.633 30.0416C101.327 30.2814 101.094 30.5997 100.934 30.9966C100.777 31.3935 100.699 31.829 100.699 32.3031C100.699 32.7772 100.777 33.2113 100.934 33.6054C101.094 33.9996 101.327 34.3152 101.633 34.5522C101.939 34.7893 102.312 34.9078 102.753 34.9078ZM107.164 35.4494V29.0989H107.879V30.0746H107.933C108.06 29.7549 108.28 29.4972 108.594 29.3015C108.911 29.103 109.27 29.0038 109.669 29.0038C109.73 29.0038 109.797 29.0052 109.872 29.008C109.946 29.0107 110.008 29.0135 110.058 29.0162V29.7646C110.025 29.759 109.967 29.7508 109.884 29.7397C109.802 29.7287 109.712 29.7232 109.616 29.7232C109.285 29.7232 108.99 29.7935 108.731 29.9341C108.474 30.0719 108.272 30.2634 108.123 30.5088C107.974 30.7541 107.9 31.0338 107.9 31.348V35.4494H107.164ZM111.314 35.4494V29.0989H112.029V30.0746H112.095C112.222 29.7466 112.433 29.4889 112.728 29.3015C113.025 29.1113 113.382 29.0162 113.799 29.0162C114.237 29.0162 114.596 29.1196 114.878 29.3263C115.162 29.5303 115.374 29.8114 115.514 30.1697H115.568C115.711 29.8169 115.944 29.5372 116.267 29.3304C116.592 29.121 116.986 29.0162 117.449 29.0162C118.039 29.0162 118.505 29.2023 118.847 29.5744C119.188 29.9437 119.359 30.4839 119.359 31.1951V35.4494H118.623V31.1951C118.623 30.6934 118.495 30.3172 118.239 30.0664C117.983 29.8155 117.645 29.6901 117.226 29.6901C116.741 29.6901 116.367 29.839 116.106 30.1367C115.844 30.4343 115.713 30.8119 115.713 31.2695V35.4494H114.96V31.1289C114.96 30.6989 114.84 30.3516 114.601 30.087C114.361 29.8224 114.023 29.6901 113.588 29.6901C113.296 29.6901 113.032 29.7618 112.798 29.9051C112.566 30.0485 112.383 30.2483 112.248 30.5046C112.116 30.7582 112.05 31.0504 112.05 31.3811V35.4494H111.314Z" fill="#525252"/>
<path d="M56.9325 9.02332H54.4585C54.3879 8.61759 54.2578 8.25817 54.0682 7.94506C53.8785 7.62753 53.6426 7.35852 53.3604 7.13801C53.0781 6.91751 52.7562 6.75213 52.3946 6.64188C52.0373 6.52722 51.6515 6.46989 51.2369 6.46989C50.5004 6.46989 49.8477 6.65511 49.2788 7.02556C48.7099 7.39159 48.2645 7.92962 47.9426 8.63964C47.6207 9.34525 47.4597 10.2074 47.4597 11.2261C47.4597 12.2625 47.6207 13.1357 47.9426 13.8457C48.2689 14.5513 48.7144 15.0849 49.2788 15.4466C49.8477 15.8038 50.4982 15.9824 51.2303 15.9824C51.636 15.9824 52.0153 15.9295 52.3681 15.8236C52.7253 15.7134 53.045 15.5524 53.3273 15.3407C53.6139 15.129 53.8543 14.8689 54.0483 14.5602C54.2468 14.2514 54.3835 13.8986 54.4585 13.5017L56.9325 13.515C56.8399 14.1588 56.6392 14.763 56.3305 15.3275C56.0262 15.892 55.6271 16.3903 55.1332 16.8225C54.6393 17.2503 54.0616 17.5855 53.4 17.828C52.7385 18.0662 52.0043 18.1852 51.1972 18.1852C50.0065 18.1852 48.9437 17.9096 48.0087 17.3583C47.0738 16.8071 46.3373 16.0111 45.7993 14.9703C45.2613 13.9295 44.9923 12.6815 44.9923 11.2261C44.9923 9.76641 45.2635 8.51836 45.8059 7.482C46.3484 6.44123 47.087 5.64521 48.022 5.09395C48.9569 4.54269 50.0153 4.26706 51.1972 4.26706C51.9513 4.26706 52.6525 4.37291 53.3008 4.58459C53.9491 4.79627 54.5268 5.10718 55.034 5.51732C55.5411 5.92304 55.9579 6.42138 56.2842 7.01233C56.615 7.59887 56.8311 8.2692 56.9325 9.02332ZM59.0741 18V7.83922H61.396V9.53268H61.5019C61.6871 8.94614 62.0046 8.49411 62.4545 8.17659C62.9087 7.85465 63.4269 7.69368 64.009 7.69368C64.1413 7.69368 64.289 7.7003 64.4522 7.71353C64.6198 7.72235 64.7587 7.73778 64.869 7.75983V9.96266C64.7675 9.92738 64.6066 9.89651 64.3861 9.87005C64.17 9.83918 63.9605 9.82374 63.7576 9.82374C63.321 9.82374 62.9285 9.91856 62.5801 10.1082C62.2362 10.2934 61.9649 10.5514 61.7665 10.8822C61.568 11.2129 61.4688 11.5944 61.4688 12.0266V18H59.0741ZM68.2575 21.8103C67.9312 21.8103 67.6291 21.7838 67.3513 21.7309C67.0779 21.6824 66.8596 21.6251 66.6964 21.5589L67.2521 19.6935C67.6005 19.7949 67.9114 19.8434 68.1848 19.839C68.4582 19.8346 68.6986 19.7486 68.9058 19.581C69.1175 19.4178 69.2961 19.1444 69.4417 18.7607L69.6467 18.2117L65.9621 7.83922H68.5023L70.8441 15.5127H70.9499L73.2983 7.83922H75.8451L71.7768 19.2304C71.5871 19.7684 71.3358 20.2293 71.0227 20.613C70.7095 21.001 70.3259 21.2965 69.8716 21.4994C69.4218 21.7067 68.8838 21.8103 68.2575 21.8103ZM85.5329 10.5249L83.3499 10.7631C83.2881 10.5426 83.1801 10.3353 83.0257 10.1413C82.8758 9.94723 82.6729 9.79067 82.4172 9.6716C82.1614 9.55252 81.8483 9.49299 81.4778 9.49299C80.9795 9.49299 80.5605 9.60104 80.2209 9.81713C79.8858 10.0332 79.7204 10.3133 79.7248 10.6572C79.7204 10.9527 79.8285 11.1931 80.049 11.3783C80.2739 11.5635 80.6443 11.7157 81.1603 11.8347L82.8934 12.2052C83.8548 12.4125 84.5693 12.741 85.0367 13.1908C85.5086 13.6407 85.7468 14.2294 85.7512 14.9571C85.7468 15.5965 85.5593 16.161 85.1889 16.6505C84.8228 17.1356 84.3135 17.5149 83.6608 17.7883C83.0081 18.0617 82.2584 18.1985 81.4117 18.1985C80.168 18.1985 79.1669 17.9383 78.4084 17.4179C77.6499 16.8931 77.1978 16.1632 77.0523 15.2283L79.3874 15.0034C79.4933 15.462 79.7182 15.8082 80.0622 16.0419C80.4062 16.2757 80.8538 16.3925 81.405 16.3925C81.9739 16.3925 82.4304 16.2757 82.7744 16.0419C83.1228 15.8082 83.297 15.5193 83.297 15.1754C83.297 14.8843 83.1845 14.6439 82.9596 14.4543C82.7391 14.2647 82.3951 14.1191 81.9276 14.0177L80.1945 13.6539C79.2199 13.451 78.4988 13.1092 78.0314 12.6285C77.5639 12.1434 77.3324 11.5304 77.3368 10.7895C77.3324 10.1633 77.5021 9.62088 77.8461 9.16223C78.1945 8.69918 78.6774 8.34196 79.2948 8.09059C79.9167 7.83481 80.6333 7.70691 81.4447 7.70691C82.6355 7.70691 83.5726 7.96049 84.2562 8.46765C84.9441 8.97481 85.3697 9.66057 85.5329 10.5249ZM92.7996 7.83922V9.69144H86.9584V7.83922H92.7996ZM88.4005 5.40486H90.7952V14.9438C90.7952 15.2658 90.8437 15.5127 90.9407 15.6847C91.0421 15.8523 91.1744 15.967 91.3376 16.0287C91.5008 16.0904 91.6816 16.1213 91.8801 16.1213C92.03 16.1213 92.1667 16.1103 92.2902 16.0882C92.4181 16.0662 92.5151 16.0463 92.5813 16.0287L92.9848 17.9008C92.8569 17.9449 92.6739 17.9934 92.4357 18.0463C92.202 18.0992 91.9153 18.1301 91.5758 18.1389C90.976 18.1566 90.4358 18.0662 89.9551 17.8677C89.4744 17.6648 89.0929 17.3517 88.8106 16.9284C88.5328 16.505 88.3961 15.9758 88.4005 15.3407V5.40486ZM97.7261 18.2051C97.0823 18.2051 96.5023 18.0904 95.9864 17.8611C95.4748 17.6273 95.0691 17.2834 94.7692 16.8291C94.4737 16.3749 94.326 15.8148 94.326 15.1489C94.326 14.5756 94.4318 14.1015 94.6435 13.7266C94.8552 13.3518 95.144 13.0519 95.5101 12.827C95.8761 12.6021 96.2885 12.4323 96.7471 12.3176C97.2102 12.1986 97.6887 12.1126 98.1826 12.0596C98.7779 11.9979 99.2608 11.9428 99.6313 11.8943C100.002 11.8413 100.271 11.762 100.438 11.6561C100.61 11.5459 100.696 11.3761 100.696 11.1468V11.1071C100.696 10.6087 100.549 10.2229 100.253 9.94943C99.9576 9.67601 99.5321 9.53929 98.9764 9.53929C98.3899 9.53929 97.9246 9.66719 97.5806 9.92297C97.241 10.1788 97.0117 10.4808 96.8926 10.8292L94.6567 10.5117C94.8331 9.8943 95.1242 9.37833 95.5299 8.96378C95.9357 8.54482 96.4318 8.23171 97.0183 8.02444C97.6049 7.81275 98.2531 7.70691 98.9632 7.70691C99.4527 7.70691 99.94 7.76424 100.425 7.87891C100.91 7.99357 101.353 8.1832 101.755 8.4478C102.156 8.708 102.478 9.06301 102.721 9.51283C102.968 9.96266 103.091 10.5249 103.091 11.1997V18H100.789V16.6042H100.71C100.564 16.8865 100.359 17.1511 100.094 17.398C99.8342 17.6406 99.5056 17.8368 99.1087 17.9868C98.7162 18.1323 98.2553 18.2051 97.7261 18.2051ZM98.348 16.4455C98.8287 16.4455 99.2454 16.3506 99.5982 16.161C99.951 15.967 100.222 15.7112 100.412 15.3937C100.606 15.0761 100.703 14.7299 100.703 14.3551V13.1578C100.628 13.2195 100.5 13.2768 100.319 13.3297C100.143 13.3827 99.9444 13.429 99.7239 13.4687C99.5034 13.5084 99.2851 13.5436 99.069 13.5745C98.8529 13.6054 98.6655 13.6318 98.5067 13.6539C98.1495 13.7024 97.8298 13.7818 97.5475 13.892C97.2653 14.0023 97.0426 14.1566 96.8794 14.3551C96.7162 14.5491 96.6347 14.8005 96.6347 15.1092C96.6347 15.5502 96.7956 15.8832 97.1176 16.1081C97.4395 16.333 97.8496 16.4455 98.348 16.4455ZM107.894 4.45229V18H105.499V4.45229H107.894Z" fill="#2F3C9D"/>
</svg>
