<svg width="22" height="23" viewBox="0 0 22 23" fill="none" xmlns="http://www.w3.org/2000/svg">
<path d="M13.2915 12.3654C13.0196 12.3654 12.7538 12.2848 12.5276 12.1337C12.3015 11.9826 12.1253 11.7679 12.0212 11.5166C11.9171 11.2654 11.8899 10.9889 11.943 10.7222C11.996 10.4554 12.127 10.2104 12.3193 10.0182C12.5116 9.82585 12.7566 9.6949 13.0233 9.64184C13.29 9.58879 13.5665 9.61602 13.8177 9.72009C14.069 9.82416 14.2837 10.0004 14.4348 10.2265C14.5859 10.4526 14.6665 10.7185 14.6665 10.9904C14.6665 11.3551 14.5217 11.7048 14.2638 11.9627C14.006 12.2206 13.6562 12.3654 13.2915 12.3654ZM21.9311 17.0808C22.0455 17.7391 22.0146 18.4145 21.8405 19.0597C21.6663 19.7048 21.3533 20.3041 20.9232 20.8155C20.4931 21.3269 19.9564 21.7381 19.3506 22.0202C18.7449 22.3023 18.0848 22.4486 17.4165 22.4488H13.7499C13.5068 22.4488 13.2736 22.3522 13.1017 22.1803C12.9298 22.0084 12.8332 21.7752 12.8332 21.5321V19.4577C12.2348 19.6155 11.6187 19.6965 10.9999 19.6988C10.3807 19.6956 9.76445 19.6124 9.16655 19.4513V21.5321C9.16655 21.7752 9.06997 22.0084 8.89806 22.1803C8.72616 22.3522 8.493 22.4488 8.24988 22.4488H4.58322C3.915 22.4486 3.25489 22.3023 2.64915 22.0202C2.04341 21.7381 1.50669 21.3269 1.07659 20.8155C0.646486 20.3041 0.333412 19.7048 0.159298 19.0597C-0.0148153 18.4145 -0.0457561 17.7391 0.0686436 17.0808L0.343643 15.4858C0.435088 14.9553 0.683354 14.4643 1.05643 14.0763C1.4295 13.6882 1.91027 13.4208 2.43674 13.3086C2.96321 13.1963 3.51125 13.2443 4.01016 13.4465C4.50908 13.6486 4.93601 13.9955 5.23589 14.4426C6.39455 16.1458 8.6248 17.8654 10.9999 17.8654C13.869 17.8654 16.696 15.318 17.5357 12.9374C17.6031 12.7585 17.7232 12.6042 17.8802 12.495C18.0372 12.3859 18.2236 12.3269 18.4148 12.326L18.8108 12.3324C18.9883 12.3346 19.1644 12.3015 19.329 12.235C19.4936 12.1685 19.6433 12.07 19.7694 11.9451C19.8956 11.8202 19.9957 11.6715 20.0638 11.5076C20.132 11.3437 20.1669 11.1679 20.1665 10.9904C20.1662 10.6689 20.0532 10.3577 19.8473 10.1108C19.6413 9.86399 19.3553 9.69713 19.039 9.63926C18.844 9.60388 18.6657 9.50624 18.5308 9.36097C18.396 9.2157 18.3118 9.03063 18.291 8.83351C18.1026 7.03252 17.2527 5.36551 15.9057 4.15522C14.5588 2.94494 12.8107 2.27748 10.9999 2.28209C5.88764 2.28209 4.48422 5.60776 3.35672 8.28076C3.15139 8.76384 2.95797 9.22492 2.74989 9.64017C4.59311 9.54271 6.39042 9.02967 8.00735 8.13945C9.62429 7.24924 11.019 6.00489 12.087 4.49951C12.157 4.40152 12.2455 4.31827 12.3477 4.2545C12.4498 4.19074 12.5634 4.14771 12.6822 4.12788C12.8009 4.10804 12.9224 4.11179 13.0397 4.13891C13.157 4.16603 13.2678 4.21598 13.3658 4.28592C13.4638 4.35586 13.547 4.44442 13.6108 4.54653C13.6746 4.64865 13.7176 4.76232 13.7374 4.88106C13.7573 4.99981 13.7535 5.12129 13.7264 5.23859C13.6993 5.35588 13.6493 5.46668 13.5794 5.56467C12.3896 7.25149 10.8373 8.6506 9.03638 9.65942C9.3109 9.72682 9.55798 9.87719 9.74397 10.0901C9.92996 10.3029 10.0458 10.5679 10.0758 10.849C10.1057 11.1301 10.0484 11.4136 9.91142 11.6609C9.77448 11.9082 9.56466 12.1072 9.31052 12.231C9.05638 12.3547 8.77027 12.3972 8.49115 12.3525C8.21204 12.3078 7.95348 12.1782 7.75068 11.9812C7.54788 11.7843 7.4107 11.5297 7.35781 11.252C7.30493 10.9743 7.33891 10.6871 7.45514 10.4294C5.34755 11.2828 3.06871 11.6283 0.802893 11.4378C0.614034 11.4124 0.437757 11.3289 0.298577 11.1988C0.159398 11.0686 0.0642347 10.8983 0.0263225 10.7116C-0.0115898 10.5249 0.00963349 10.3309 0.0870407 10.1568C0.164448 9.98271 0.294191 9.83705 0.458227 9.74009C1.01238 9.11135 1.42474 8.37073 1.66731 7.56851C2.86356 4.73326 4.67489 0.448756 10.9999 0.448756C13.158 0.443643 15.2484 1.2023 16.9009 2.59042C18.5535 3.97854 19.6616 5.9066 20.029 8.03326C20.6124 8.27713 21.1106 8.68792 21.4613 9.21404C21.8119 9.74017 21.9993 10.3582 21.9999 10.9904C21.9983 11.7521 21.7201 12.4874 21.217 13.0593C21.2235 13.0832 21.24 13.1024 21.2445 13.1281L21.9311 17.0808ZM7.33322 18.7271C5.88328 17.9501 4.6436 16.8328 3.72064 15.4711C3.64209 15.3524 3.53553 15.2548 3.41035 15.187C3.28518 15.1192 3.14524 15.0833 3.00289 15.0824H2.98731C2.78661 15.0866 2.59362 15.1604 2.4413 15.2912C2.28898 15.4219 2.1868 15.6015 2.15222 15.7993L1.87722 17.3933C1.80842 17.7882 1.82676 18.1934 1.93097 18.5804C2.03519 18.9675 2.22275 19.327 2.48053 19.634C2.73832 19.9409 3.06008 20.1878 3.42329 20.3573C3.78651 20.5269 4.18239 20.615 4.58322 20.6154H7.33322V18.7271ZM20.1253 17.3933L19.5496 14.0814C19.3753 14.123 19.1977 14.1494 19.0189 14.1603C18.094 16.1117 16.5689 17.716 14.6665 18.7381V20.6154H17.4165C17.8175 20.6153 18.2136 20.5276 18.5771 20.3583C18.9406 20.189 19.2626 19.9422 19.5207 19.6353C19.7788 19.3285 19.9666 18.9688 20.071 18.5817C20.1755 18.1946 20.194 17.7893 20.1253 17.3943V17.3933Z" fill="#6173FB"/>
</svg>
