<svg width="22" height="23" viewBox="0 0 22 23" fill="none" xmlns="http://www.w3.org/2000/svg">
<g clip-path="url(#clip0_216_2475)">
<path d="M21.1945 8.76253L14.2416 1.8087C13.3811 0.950686 12.2154 0.468872 11.0003 0.468872C9.78507 0.468872 8.61945 0.950686 7.75892 1.8087L0.806005 8.76253C0.549729 9.01717 0.346544 9.32014 0.208231 9.65388C0.0699174 9.98763 -0.000773726 10.3455 0.000255213 10.7068V19.7057C0.000255213 20.435 0.289987 21.1345 0.805712 21.6502C1.32144 22.166 2.02091 22.4557 2.75026 22.4557H19.2503C19.9796 22.4557 20.6791 22.166 21.1948 21.6502C21.7105 21.1345 22.0003 20.435 22.0003 19.7057V10.7068C22.0013 10.3455 21.9306 9.98763 21.7923 9.65388C21.654 9.32014 21.4508 9.01717 21.1945 8.76253ZM13.7503 20.6224H8.25026V17.0162C8.25026 16.2869 8.53999 15.5874 9.05571 15.0717C9.57144 14.5559 10.2709 14.2662 11.0003 14.2662C11.7296 14.2662 12.4291 14.5559 12.9448 15.0717C13.4605 15.5874 13.7503 16.2869 13.7503 17.0162V20.6224ZM20.1669 19.7057C20.1669 19.9488 20.0703 20.182 19.8984 20.3539C19.7265 20.5258 19.4934 20.6224 19.2503 20.6224H15.5836V17.0162C15.5836 15.8006 15.1007 14.6348 14.2412 13.7753C13.3816 12.9157 12.2158 12.4329 11.0003 12.4329C9.78468 12.4329 8.61889 12.9157 7.75935 13.7753C6.89981 14.6348 6.41692 15.8006 6.41692 17.0162V20.6224H2.75026C2.50714 20.6224 2.27398 20.5258 2.10207 20.3539C1.93017 20.182 1.83359 19.9488 1.83359 19.7057V10.7068C1.83444 10.4638 1.93093 10.231 2.10217 10.0587L9.05509 3.10761C9.57181 2.5933 10.2712 2.30456 11.0003 2.30456C11.7293 2.30456 12.4287 2.5933 12.9454 3.10761L19.8983 10.0614C20.0689 10.2331 20.1654 10.4648 20.1669 10.7068V19.7057Z" fill="#2F3C9D"/>
</g>
<defs>
<clipPath id="clip0_216_2475">
<rect width="22" height="22" fill="white" transform="translate(0 0.449341)"/>
</clipPath>
</defs>
</svg>
