<svg width="22" height="23" viewBox="0 0 22 23" fill="none" xmlns="http://www.w3.org/2000/svg">
<g clip-path="url(#clip0_216_2488)">
<path d="M10.5197 14.1993C10.2766 14.1993 10.0434 14.2959 9.87148 14.4678C9.69958 14.6397 9.603 14.8729 9.603 15.116V17.866C9.603 18.5954 9.31327 19.2948 8.79754 19.8106C8.28182 20.3263 7.58235 20.616 6.853 20.616H4.58333C3.85399 20.616 3.15451 20.3263 2.63879 19.8106C2.12306 19.2948 1.83333 18.5954 1.83333 17.866V5.03267C1.83333 4.30333 2.12306 3.60386 2.63879 3.08813C3.15451 2.57241 3.85399 2.28267 4.58333 2.28267H6.853C7.58235 2.28267 8.28182 2.57241 8.79754 3.08813C9.31327 3.60386 9.603 4.30333 9.603 5.03267V7.78267C9.603 8.02579 9.69958 8.25895 9.87148 8.43086C10.0434 8.60276 10.2766 8.69934 10.5197 8.69934C10.7628 8.69934 10.9959 8.60276 11.1678 8.43086C11.3398 8.25895 11.4363 8.02579 11.4363 7.78267V5.03267C11.4349 3.81755 10.9515 2.6526 10.0923 1.79338C9.23307 0.934149 8.06813 0.450796 6.853 0.449341H4.58333C3.3682 0.450796 2.20326 0.934149 1.34403 1.79338C0.484808 2.6526 0.00145554 3.81755 0 5.03267L0 17.866C0.00145554 19.0811 0.484808 20.2461 1.34403 21.1053C2.20326 21.9645 3.3682 22.4479 4.58333 22.4493H6.853C8.06813 22.4479 9.23307 21.9645 10.0923 21.1053C10.9515 20.2461 11.4349 19.0811 11.4363 17.866V15.116C11.4363 14.8729 11.3398 14.6397 11.1678 14.4678C10.9959 14.2959 10.7628 14.1993 10.5197 14.1993Z" fill="#2F3C9D"/>
<path d="M20.9616 9.50529L16.7577 5.30145C16.6732 5.2139 16.572 5.14407 16.4602 5.09603C16.3484 5.04799 16.2281 5.0227 16.1064 5.02164C15.9847 5.02058 15.8639 5.04378 15.7513 5.08987C15.6386 5.13596 15.5363 5.20402 15.4502 5.29009C15.3642 5.37616 15.2961 5.47851 15.25 5.59116C15.2039 5.70382 15.1807 5.82452 15.1818 5.94624C15.1828 6.06795 15.2081 6.18824 15.2562 6.30007C15.3042 6.41191 15.374 6.51306 15.4616 6.59762L19.3684 10.5054L5.50016 10.5329C5.25705 10.5329 5.02389 10.6294 4.85198 10.8014C4.68007 10.9733 4.5835 11.2064 4.5835 11.4495C4.5835 11.6927 4.68007 11.9258 4.85198 12.0977C5.02389 12.2696 5.25705 12.3662 5.50016 12.3662L19.4225 12.3378L15.4597 16.3015C15.3722 16.386 15.3024 16.4872 15.2543 16.599C15.2063 16.7108 15.181 16.8311 15.1799 16.9528C15.1789 17.0746 15.2021 17.1953 15.2482 17.3079C15.2943 17.4206 15.3623 17.5229 15.4484 17.609C15.5345 17.6951 15.6368 17.7631 15.7495 17.8092C15.8621 17.8553 15.9828 17.8785 16.1045 17.8774C16.2262 17.8764 16.3465 17.8511 16.4584 17.803C16.5702 17.755 16.6714 17.6852 16.7559 17.5976L20.9597 13.3938C21.4755 12.8783 21.7655 12.1791 21.7658 11.4499C21.7662 10.7207 21.4769 10.0212 20.9616 9.50529Z" fill="#2F3C9D"/>
</g>
<defs>
<clipPath id="clip0_216_2488">
<rect width="22" height="22" fill="white" transform="translate(0 0.449341)"/>
</clipPath>
</defs>
</svg>
