<svg width="22" height="23" viewBox="0 0 22 23" fill="none" xmlns="http://www.w3.org/2000/svg">
<g clip-path="url(#clip0_216_2483)">
<path d="M17.4167 3.21951C17.4167 3.21217 17.4167 3.20667 17.4167 3.19934V1.36601C17.4167 1.12289 17.3201 0.889735 17.1482 0.717826C16.9763 0.545918 16.7431 0.449341 16.5 0.449341C16.2569 0.449341 16.0237 0.545918 15.8518 0.717826C15.6799 0.889735 15.5833 1.12289 15.5833 1.36601V2.37434C15.2816 2.31308 14.9745 2.28237 14.6667 2.28267H13.75V1.36601C13.75 1.12289 13.6534 0.889735 13.4815 0.717826C13.3096 0.545918 13.0764 0.449341 12.8333 0.449341C12.5902 0.449341 12.3571 0.545918 12.1852 0.717826C12.0132 0.889735 11.9167 1.12289 11.9167 1.36601V2.28267H10.0833V1.36601C10.0833 1.12289 9.98676 0.889735 9.81485 0.717826C9.64294 0.545918 9.40978 0.449341 9.16667 0.449341C8.92355 0.449341 8.69039 0.545918 8.51849 0.717826C8.34658 0.889735 8.25 1.12289 8.25 1.36601V2.28267H7.33333C7.02547 2.28237 6.71837 2.31308 6.41667 2.37434V1.36601C6.41667 1.12289 6.32009 0.889735 6.14818 0.717826C5.97627 0.545918 5.74312 0.449341 5.5 0.449341C5.25688 0.449341 5.02373 0.545918 4.85182 0.717826C4.67991 0.889735 4.58333 1.12289 4.58333 1.36601V3.19934V3.21951C4.01572 3.64335 3.55456 4.1935 3.23635 4.82641C2.91815 5.45932 2.75164 6.15761 2.75 6.86601V17.866C2.75146 19.0811 3.23481 20.2461 4.09403 21.1053C4.95326 21.9645 6.1182 22.4479 7.33333 22.4493H14.6667C15.8818 22.4479 17.0467 21.9645 17.906 21.1053C18.7652 20.2461 19.2485 19.0811 19.25 17.866V6.86601C19.2484 6.15761 19.0819 5.45932 18.7636 4.82641C18.4454 4.1935 17.9843 3.64335 17.4167 3.21951ZM17.4167 17.866C17.4167 18.5954 17.1269 19.2948 16.6112 19.8106C16.0955 20.3263 15.396 20.616 14.6667 20.616H7.33333C6.60399 20.616 5.90451 20.3263 5.38879 19.8106C4.87306 19.2948 4.58333 18.5954 4.58333 17.866V6.86601C4.58333 6.13666 4.87306 5.43719 5.38879 4.92146C5.90451 4.40574 6.60399 4.11601 7.33333 4.11601H14.6667C15.396 4.11601 16.0955 4.40574 16.6112 4.92146C17.1269 5.43719 17.4167 6.13666 17.4167 6.86601V17.866ZM15.5833 7.78267C15.5833 8.02579 15.4868 8.25895 15.3148 8.43086C15.1429 8.60276 14.9098 8.69934 14.6667 8.69934H7.33333C7.09022 8.69934 6.85706 8.60276 6.68515 8.43086C6.51324 8.25895 6.41667 8.02579 6.41667 7.78267C6.41667 7.53956 6.51324 7.3064 6.68515 7.13449C6.85706 6.96258 7.09022 6.86601 7.33333 6.86601H14.6667C14.9098 6.86601 15.1429 6.96258 15.3148 7.13449C15.4868 7.3064 15.5833 7.53956 15.5833 7.78267ZM15.5833 11.4493C15.5833 11.6925 15.4868 11.9256 15.3148 12.0975C15.1429 12.2694 14.9098 12.366 14.6667 12.366H7.33333C7.09022 12.366 6.85706 12.2694 6.68515 12.0975C6.51324 11.9256 6.41667 11.6925 6.41667 11.4493C6.41667 11.2062 6.51324 10.9731 6.68515 10.8012C6.85706 10.6293 7.09022 10.5327 7.33333 10.5327H14.6667C14.9098 10.5327 15.1429 10.6293 15.3148 10.8012C15.4868 10.9731 15.5833 11.2062 15.5833 11.4493ZM11.9167 15.116C11.9167 15.3591 11.8201 15.5923 11.6482 15.7642C11.4763 15.9361 11.2431 16.0327 11 16.0327H7.33333C7.09022 16.0327 6.85706 15.9361 6.68515 15.7642C6.51324 15.5923 6.41667 15.3591 6.41667 15.116C6.41667 14.8729 6.51324 14.6397 6.68515 14.4678C6.85706 14.2959 7.09022 14.1993 7.33333 14.1993H11C11.2431 14.1993 11.4763 14.2959 11.6482 14.4678C11.8201 14.6397 11.9167 14.8729 11.9167 15.116Z" fill="#2F3C9D"/>
</g>
<defs>
<clipPath id="clip0_216_2483">
<rect width="22" height="22" fill="white" transform="translate(0 0.449341)"/>
</clipPath>
</defs>
</svg>
