<svg width="20" height="20" viewBox="0 0 20 20" fill="none" xmlns="http://www.w3.org/2000/svg">
<g clip-path="url(#clip0_412_4027)">
<path d="M8.55283 17.105C10.4505 17.1046 12.2935 16.4694 13.7883 15.3004L18.4881 20L19.9999 18.4883L15.3 13.7888C16.4696 12.2938 17.1053 10.4505 17.1058 8.55249C17.1058 3.83686 13.2687 0 8.55283 0C3.83694 0 -0.00012207 3.83686 -0.00012207 8.55249C-0.00012207 13.2681 3.83694 17.105 8.55283 17.105ZM8.55283 2.13812C12.0905 2.13812 14.9675 5.01497 14.9675 8.55249C14.9675 12.09 12.0905 14.9669 8.55283 14.9669C5.01511 14.9669 2.13811 12.09 2.13811 8.55249C2.13811 5.01497 5.01511 2.13812 8.55283 2.13812Z" fill="#80ACF4"/>
</g>
<defs>
<clipPath id="clip0_412_4027">
<rect width="20" height="20" fill="white"/>
</clipPath>
</defs>
</svg>
